# xmcd CD database file
#
# Track frame offsets:
#	150
#	108636
#	128273
#	150414
#	171384
#	191553
#	214562
#	222646
#	237142
#	262384
#	310853
#	329859
#
# Disc length: 4657 seconds
#
# Revision: 0
# Processed by: cddbd v1.5.1PL2 Copyright (c) Steve Scherf et al.
# Submitted via: CDex 1.51
#
DISCID=b5122f0c
DTITLE=Ralph Lundsten - Cosmic Phantazy
DYEAR=2003
DGENRE=New Age
TTITLE0=Cosmic Phantazy
TTITLE1=The Blue Planet
TTITLE2=Robot Amoroso
TTITLE3=The Planet of Winds
TTITLE4=Time of Rapture
TTITLE5=Time Storm
TTITLE6=Marcia Ralphus Rex
TTITLE7=Space Funeral
TTITLE8=The Transmigration of Souls
TTITLE9=Meetings
TTITLE10=Nocture for a Nebula
TTITLE11=Marching Tune From Andromeda
EXTD=YEAR: 2003
EXTT0=
EXTT1=
EXTT2=
EXTT3=
EXTT4=
EXTT5=
EXTT6=
EXTT7=
EXTT8=
EXTT9=
EXTT10=
EXTT11=
PLAYORDER=
